<svg id="Layer_1" data-name="Layer 1" xmlns="http://www.w3.org/2000/svg" viewBox="0 0 405.51 85.32"><defs><style>.cls-1{fill:#21ba9d;}.cls-2{fill:#011f26;}</style></defs><title>Itravel logo </title><path class="cls-1" d="M97.56,44.18,97.17,46a49.36,49.36,0,0,1-6.33,14.69C84.92,69.73,77,74.33,67.14,74.33c-7.06,0-12.64-2.53-16.57-7.52-5.36-6.78-7-16.89-6.86-24.37a29.63,29.63,0,0,0,6.26.69A25.5,25.5,0,0,0,63.49,39.3c8.95-5.5,12.2-15.93,7.4-23.75-2.71-4.41-7.78-7-13.55-7a20.8,20.8,0,0,0-10.89,3.16c-6,3.66-8.83,8.85-10.93,15.45A64.69,64.69,0,0,1,23,16.43l-1.21-1.38-8.32,7.18,1.2,1.39a75,75,0,0,0,15,12.75c1.12.71,2.25,1.38,3.37,2-1,10.07.75,24.84,9,35.27,6,7.66,14.76,11.7,25.21,11.7,32.6,0,40.72-36.71,40.79-37.08l.39-1.82Zm-36-22.88c1.38,2.25.34,6.1-3.79,8.63a14.66,14.66,0,0,1-7.79,2.18,19.23,19.23,0,0,1-4.3-.51c1.73-5.86,3.53-8.71,6.56-10.57a10,10,0,0,1,5.15-1.5C59.28,19.53,60.84,20.19,61.52,21.3Z"/><path class="cls-1" d="M98.27,31a7.67,7.67,0,1,1,7.64,7.64A7.51,7.51,0,0,1,98.27,31Z"/><path class="cls-1" d="M0,7.64A7.51,7.51,0,0,1,7.64,0a7.49,7.49,0,0,1,7.69,7.64,7.5,7.5,0,0,1-7.69,7.64A7.51,7.51,0,0,1,0,7.64Z"/><path class="cls-2" d="M137,22.46a6.48,6.48,0,0,1,9.21-9.12,6.4,6.4,0,0,1-.09,9.12A6.48,6.48,0,0,1,137,22.46ZM136.42,78V30h10.37V78Z"/><path class="cls-2" d="M173.21,39.94h-9.52V63c0,6.14,2,8,9.52,5.66V78c-14.15,3.58-19.89-1.25-19.89-13.83V19.58l10.37-3.07V30h9.52Z"/><path class="cls-2" d="M191.07,38c2.6-6,7.59-8.93,14.79-8.93V40.33a15,15,0,0,0-10.37,2.88c-3,2.11-4.42,5.66-4.42,10.56V78H180.7V30h10.37Z"/><path class="cls-2" d="M300.55,30h11.34L293.16,78h-12L262.43,30h11.33l13.45,36.5Z"/><path class="cls-2" d="M322.74,58.38c1.53,7.3,7.39,11.33,15.36,11.33,5.47,0,9.6-2,12.39-5.95l8.54,5c-4.7,7-11.71,10.47-21,10.47-7.77,0-14.11-2.4-18.91-7.11s-7.2-10.85-7.2-18.15A24.66,24.66,0,0,1,319,36c4.71-4.89,10.85-7.29,18.25-7.29a22.48,22.48,0,0,1,17.28,7.39,25.7,25.7,0,0,1,6.82,18,28.17,28.17,0,0,1-.39,4.32Zm28.13-8.45c-1.44-7.78-6.91-11.81-13.73-11.81-7.68,0-13.06,4.51-14.5,11.81Z"/><path class="cls-2" d="M378.43,63V7.87H368.07V64.16c0,7.15,1.85,11.79,6.05,13.81,3.18,1.54,7.73,1.56,13.83,0V68.71C380.4,71.05,378.43,69.18,378.43,63Z"/><path class="cls-2" d="M257.33,63.93V30H247v6.83c-3.94-5.39-9.51-8.08-16.8-8.08A22.46,22.46,0,0,0,213.26,36a24.8,24.8,0,0,0-7,18,25,25,0,0,0,7,18,22.48,22.48,0,0,0,16.9,7.3c7.29,0,13.63-2.69,17.57-8.16.06.22,1.69,8.16,11.17,8.16a30.86,30.86,0,0,0,8-1.23V68.7C258.33,71.57,257.33,67.28,257.33,63.93ZM242.64,65a15.79,15.79,0,0,1-21.7,0,15.19,15.19,0,0,1-4.32-11A14.81,14.81,0,0,1,220.94,43a15.53,15.53,0,0,1,21.7,0A14.81,14.81,0,0,1,247,54,15.19,15.19,0,0,1,242.64,65Z"/><path class="cls-1" d="M394.43,77.26a6.48,6.48,0,1,1,9.21-9.12,6.4,6.4,0,0,1-.09,9.12A6.48,6.48,0,0,1,394.43,77.26Z"/></svg>